<svg width="20" height="20" viewBox="0 0 20 20" fill="currentColor" xmlns="http://www.w3.org/2000/svg">
<path opacity="0.08" d="M16.25 13.75L13.75 16.25V11.25L16.25 13.75ZM6.25 8.75V3.75L3.75 6.25L6.25 8.75Z" fill="currentColor"/>
<path d="M16.6922 13.3078L14.1922 10.8078C14.1048 10.7203 13.9934 10.6607 13.8721 10.6365C13.7508 10.6124 13.625 10.6248 13.5108 10.6721C13.3965 10.7195 13.2988 10.7996 13.2302 10.9025C13.1615 11.0054 13.1249 11.1263 13.125 11.25V13.125H3.75C3.58424 13.125 3.42527 13.1909 3.30806 13.3081C3.19085 13.4253 3.125 13.5842 3.125 13.75C3.125 13.9158 3.19085 14.0747 3.30806 14.1919C3.42527 14.3092 3.58424 14.375 3.75 14.375H13.125V16.25C13.1249 16.3737 13.1615 16.4946 13.2302 16.5975C13.2988 16.7004 13.3965 16.7805 13.5108 16.8279C13.625 16.8752 13.7508 16.8876 13.8721 16.8635C13.9934 16.8393 14.1048 16.7797 14.1922 16.6922L16.6922 14.1922C16.7503 14.1341 16.7964 14.0652 16.8279 13.9893C16.8593 13.9135 16.8755 13.8321 16.8755 13.75C16.8755 13.6679 16.8593 13.5865 16.8279 13.5107C16.7964 13.4348 16.7503 13.3659 16.6922 13.3078ZM14.375 14.7414V12.7586L15.3664 13.75L14.375 14.7414ZM5.80782 9.19454C5.89537 9.28219 6.00699 9.34184 6.12851 9.36592C6.25004 9.39001 6.37597 9.37743 6.49033 9.32979C6.6047 9.28216 6.70232 9.20161 6.77081 9.09838C6.8393 8.99515 6.87557 8.87389 6.875 8.75V6.875H16.25C16.4158 6.875 16.5747 6.80916 16.6919 6.69195C16.8092 6.57474 16.875 6.41576 16.875 6.25C16.875 6.08424 16.8092 5.92527 16.6919 5.80806C16.5747 5.69085 16.4158 5.625 16.25 5.625H6.875V3.75C6.8751 3.62632 6.8385 3.50539 6.76983 3.40252C6.70116 3.29964 6.60351 3.21946 6.48925 3.17211C6.37498 3.12477 6.24924 3.11239 6.12794 3.13655C6.00663 3.1607 5.89523 3.22031 5.80782 3.30782L3.30782 5.80782C3.24971 5.86586 3.20361 5.93479 3.17215 6.01067C3.1407 6.08654 3.12451 6.16787 3.12451 6.25C3.12451 6.33214 3.1407 6.41347 3.17215 6.48934C3.20361 6.56522 3.24971 6.63415 3.30782 6.69219L5.80782 9.19454ZM5.625 5.2586V7.24141L4.6336 6.25L5.625 5.2586Z" fill="currentColor"/>
</svg>
