<svg width="23" height="20" viewBox="0 0 23 20" fill="none" xmlns="http://www.w3.org/2000/svg">
<path d="M18.3681 0.798615H3.99306C3.14584 0.798615 2.33332 1.13517 1.73425 1.73425C1.13517 2.33332 0.798615 3.14584 0.798615 3.99306V11.9792C0.798615 12.8264 1.13517 13.6389 1.73425 14.238C2.33332 14.8371 3.14584 15.1736 3.99306 15.1736H12.7778L17.5694 18.3681V15.1736H18.3681C19.2153 15.1736 20.0278 14.8371 20.6269 14.238C21.2259 13.6389 21.5625 12.8264 21.5625 11.9792V3.99306C21.5625 3.14584 21.2259 2.33332 20.6269 1.73425C20.0278 1.13517 19.2153 0.798615 18.3681 0.798615Z" stroke="black" stroke-width="1.59722" stroke-linecap="round" stroke-linejoin="round"/>
<path d="M6.38889 8.78471C6.38889 8.99652 6.30475 9.19964 6.15499 9.34941C6.00522 9.49918 5.80209 9.58332 5.59028 9.58332C5.37848 9.58332 5.17535 9.49918 5.02558 9.34941C4.87581 9.19964 4.79167 8.99652 4.79167 8.78471C4.79167 8.57291 4.87581 8.36978 5.02558 8.22001C5.17535 8.07024 5.37848 7.9861 5.59028 7.9861C5.80209 7.9861 6.00522 8.07024 6.15499 8.22001C6.30475 8.36978 6.38889 8.57291 6.38889 8.78471ZM11.1806 8.78471C11.1806 8.99652 11.0964 9.19964 10.9467 9.34941C10.7969 9.49918 10.5938 9.58332 10.3819 9.58332C10.1701 9.58332 9.96701 9.49918 9.81725 9.34941C9.66748 9.19964 9.58334 8.99652 9.58334 8.78471C9.58334 8.57291 9.66748 8.36978 9.81725 8.22001C9.96701 8.07024 10.1701 7.9861 10.3819 7.9861C10.5938 7.9861 10.7969 8.07024 10.9467 8.22001C11.0964 8.36978 11.1806 8.57291 11.1806 8.78471ZM15.9722 8.78471C15.9722 8.99652 15.8881 9.19964 15.7383 9.34941C15.5886 9.49918 15.3854 9.58332 15.1736 9.58332C14.9618 9.58332 14.7587 9.49918 14.6089 9.34941C14.4591 9.19964 14.375 8.99652 14.375 8.78471C14.375 8.57291 14.4591 8.36978 14.6089 8.22001C14.7587 8.07024 14.9618 7.9861 15.1736 7.9861C15.3854 7.9861 15.5886 8.07024 15.7383 8.22001C15.8881 8.36978 15.9722 8.57291 15.9722 8.78471Z" stroke="black" stroke-width="1.59722" stroke-linecap="round" stroke-linejoin="round"/>
</svg>
