<svg width="16" height="16" viewBox="0 0 16 16" xmlns="http://www.w3.org/2000/svg" fill="currentColor">
<path fill-rule="evenodd" clip-rule="evenodd" d="M7.09933 1.59979H8.89751C8.95708 1.59979 9.01422 1.62226 9.05635 1.66226C9.09847 1.70226 9.12214 1.75652 9.12214 1.81309C9.12214 3.74137 11.3213 4.94761 13.0802 3.9824C13.1315 3.95484 13.1922 3.94755 13.2491 3.96212C13.3061 3.97669 13.3547 4.01194 13.3845 4.06026L14.2853 5.54059C14.3147 5.58944 14.3226 5.64734 14.3072 5.70167C14.2918 5.756 14.2545 5.80237 14.2033 5.83069C12.4444 6.79483 12.4444 9.20517 14.2033 10.1704C14.2542 10.1987 14.2913 10.2449 14.3067 10.2989C14.322 10.353 14.3143 10.4107 14.2853 10.4594L13.3845 11.9397C13.3547 11.9881 13.3061 12.0233 13.2491 12.0379C13.1922 12.0524 13.1315 12.0452 13.0802 12.0176C11.3213 11.0524 9.12214 12.2576 9.12214 14.1848C9.12214 14.2412 9.09863 14.2953 9.05675 14.3352C9.01486 14.3752 8.95801 14.3978 8.89863 14.3981H7.10045C7.04088 14.3981 6.98374 14.3756 6.94161 14.3356C6.89949 14.2956 6.87582 14.2413 6.87582 14.1848C6.87582 12.2565 4.67667 11.0513 2.9178 12.0155C2.86636 12.0434 2.80539 12.0508 2.74818 12.0363C2.69096 12.0217 2.64212 11.9862 2.6123 11.9376L1.71378 10.4573C1.68465 10.4087 1.67681 10.3511 1.69194 10.297C1.70706 10.243 1.74395 10.1967 1.79464 10.1682C3.55351 9.20304 3.55351 6.79269 1.79464 5.82749C1.74406 5.79919 1.70715 5.7532 1.69182 5.69938C1.6765 5.64556 1.68398 5.58818 1.71265 5.53953L2.6123 4.05813C2.64231 4.0097 2.69123 3.97447 2.74843 3.96009C2.80563 3.94571 2.8665 3.95335 2.9178 3.98134C4.67667 4.94654 6.87582 3.7403 6.87582 1.81203C6.87582 1.69471 6.97578 1.59979 7.09933 1.59979ZM5.19108 1.81309C5.19108 0.810559 6.04468 0 7.09933 0H8.89751C9.95328 0 10.8069 0.810559 10.8069 1.81309C10.8072 1.97197 10.8515 2.12797 10.9353 2.26546C11.0192 2.40296 11.1396 2.51713 11.2845 2.59652C11.4294 2.67591 11.5938 2.71775 11.7611 2.71783C11.9284 2.71791 12.0928 2.67624 12.2378 2.59699C12.6761 2.35729 13.1966 2.29252 13.6851 2.4169C14.1737 2.54127 14.5903 2.84462 14.8435 3.26037L15.7443 4.7407C16.2711 5.60779 15.9577 6.71484 15.0457 7.21504C14.9006 7.29462 14.7802 7.40905 14.6964 7.54684C14.6127 7.68463 14.5686 7.84091 14.5686 8C14.5686 8.15909 14.6127 8.31538 14.6964 8.45316C14.7802 8.59095 14.9006 8.70538 15.0457 8.78496C15.4835 9.02543 15.803 9.42102 15.9339 9.88492C16.0649 10.3488 15.9967 10.8431 15.7443 11.2593L14.8435 12.7396C14.5903 13.1554 14.1737 13.4587 13.6851 13.5831C13.1966 13.7075 12.6761 13.6427 12.2378 13.403C12.0928 13.3238 11.9284 13.2821 11.7611 13.2822C11.5938 13.2823 11.4294 13.3241 11.2845 13.4035C11.1396 13.4829 11.0192 13.597 10.9353 13.7345C10.8515 13.872 10.8072 14.028 10.8069 14.1869C10.8069 15.1884 9.95328 16 8.89863 16H7.10045C6.59425 15.9997 6.10888 15.8086 5.75105 15.4686C5.39321 15.1286 5.1922 14.6676 5.1922 14.1869C5.19187 14.028 5.14757 13.872 5.06375 13.7345C4.97992 13.597 4.85952 13.4829 4.7146 13.4035C4.56967 13.3241 4.40532 13.2823 4.23801 13.2822C4.0707 13.2821 3.90631 13.3238 3.7613 13.403C3.32301 13.6427 2.80247 13.7075 2.31393 13.5831C1.8254 13.4587 1.4088 13.1554 1.15557 12.7396L0.254791 11.2593C0.00236813 10.8431 -0.0658406 10.3488 0.0651362 9.88492C0.196113 9.42102 0.515573 9.02543 0.953396 8.78496C1.0982 8.70531 1.21841 8.59091 1.30198 8.45323C1.38554 8.31556 1.42953 8.15944 1.42953 8.00053C1.42953 7.84163 1.38554 7.68551 1.30198 7.54783C1.21841 7.41016 1.0982 7.29576 0.953396 7.2161C0.515573 6.97564 0.196113 6.58004 0.0651362 6.11615C-0.0658406 5.65225 0.00236813 5.15796 0.254791 4.74177L1.15444 3.26037C1.40768 2.84462 1.82428 2.54127 2.31281 2.4169C2.80134 2.29252 3.32188 2.35729 3.76017 2.59699C3.90518 2.67624 4.06958 2.71791 4.23689 2.71783C4.4042 2.71775 4.56855 2.67591 4.71347 2.59652C4.8584 2.51713 4.9788 2.40296 5.06262 2.26546C5.14645 2.12797 5.19075 1.97197 5.19108 1.81309ZM9.68372 7.99893C9.68372 8.42322 9.50622 8.83014 9.19027 9.13015C8.87432 9.43017 8.4458 9.59872 7.99898 9.59872C7.55216 9.59872 7.12364 9.43017 6.80769 9.13015C6.49174 8.83014 6.31424 8.42322 6.31424 7.99893C6.31424 7.57464 6.49174 7.16773 6.80769 6.86771C7.12364 6.5677 7.55216 6.39915 7.99898 6.39915C8.4458 6.39915 8.87432 6.5677 9.19027 6.86771C9.50622 7.16773 9.68372 7.57464 9.68372 7.99893ZM11.3685 7.99893C11.3685 8.84751 11.0135 9.66134 10.3816 10.2614C9.74966 10.8614 8.89262 11.1985 7.99898 11.1985C7.10534 11.1985 6.2483 10.8614 5.6164 10.2614C4.9845 9.66134 4.6295 8.84751 4.6295 7.99893C4.6295 7.15035 4.9845 6.33653 5.6164 5.73649C6.2483 5.13646 7.10534 4.79936 7.99898 4.79936C8.89262 4.79936 9.74966 5.13646 10.3816 5.73649C11.0135 6.33653 11.3685 7.15035 11.3685 7.99893Z"/>
</svg>
