<svg width="15" height="19" viewBox="0 0 15 19" fill="none" xmlns="http://www.w3.org/2000/svg" stroke="currentColor">
<path d="M2.41667 14.9167V7.41667C2.41667 6.09058 2.94345 4.81881 3.88113 3.88113C4.81881 2.94345 6.09058 2.41667 7.41667 2.41667C8.74275 2.41667 10.0145 2.94345 10.9522 3.88113C11.8899 4.81881 12.4167 6.09058 12.4167 7.41667V14.9167M2.41667 14.9167H12.4167M2.41667 14.9167H0.75M12.4167 14.9167H14.0833M6.58333 17.4167H8.25" stroke-width="1.5" stroke-linecap="round" stroke-linejoin="round"/>
<path d="M7.41671 2.41667C7.87694 2.41667 8.25004 2.04357 8.25004 1.58333C8.25004 1.1231 7.87694 0.75 7.41671 0.75C6.95647 0.75 6.58337 1.1231 6.58337 1.58333C6.58337 2.04357 6.95647 2.41667 7.41671 2.41667Z" stroke-width="1.5"/>
</svg>
