<svg width="24" height="24" viewBox="0 0 24 24" fill="none" xmlns="http://www.w3.org/2000/svg">
<path d="M4.99975 9V19M8.99975 9V19M14.9998 9V12M18.9998 9V12M20.8748 21.75H20.7498M15.3748 16.25H15.2498M20.9998 16L14.9998 22M10.9998 22H3.64775C2.64775 22 2.14775 22 2.02475 21.691C1.89975 21.383 2.25375 21.019 2.95975 20.293L3.64775 19.586C3.92875 19.296 4.06975 19.152 4.24775 19.076C4.42775 19 4.62575 19 5.02375 19H10.9998M20.9998 21.75C20.9998 21.8163 20.9734 21.8799 20.9265 21.9268C20.8796 21.9737 20.8161 22 20.7498 22C20.6834 22 20.6199 21.9737 20.573 21.9268C20.5261 21.8799 20.4998 21.8163 20.4998 21.75C20.4998 21.6837 20.5261 21.6201 20.573 21.5732C20.6199 21.5263 20.6834 21.5 20.7498 21.5C20.8161 21.5 20.8796 21.5263 20.9265 21.5732C20.9734 21.6201 20.9998 21.6837 20.9998 21.75ZM15.4998 16.25C15.4998 16.3163 15.4734 16.3799 15.4265 16.4268C15.3796 16.4737 15.3161 16.5 15.2498 16.5C15.1835 16.5 15.1199 16.4737 15.073 16.4268C15.0261 16.3799 14.9998 16.3163 14.9998 16.25C14.9998 16.1837 15.0261 16.1201 15.073 16.0732C15.1199 16.0263 15.1835 16 15.2498 16C15.3161 16 15.3796 16.0263 15.4265 16.0732C15.4734 16.1201 15.4998 16.1837 15.4998 16.25ZM21.3518 9H2.64775C2.50734 8.99801 2.37126 8.95108 2.25946 8.86609C2.14767 8.78111 2.06605 8.66254 2.02657 8.52777C1.98709 8.393 1.99183 8.24913 2.04009 8.11726C2.08836 7.98538 2.17761 7.87244 2.29475 7.795L8.72975 3.565C10.3168 2.522 11.1098 2 11.9998 2C12.8898 2 13.6828 2.522 15.2698 3.565L21.7048 7.795C21.8212 7.87283 21.9098 7.9858 21.9577 8.11748C22.0055 8.24916 22.0101 8.39266 21.9707 8.5271C21.9313 8.66155 21.85 8.77991 21.7387 8.86497C21.6274 8.95002 21.4918 8.99733 21.3518 9Z" stroke="currentColor" stroke-width="1.5" stroke-linecap="round" stroke-linejoin="round"/>
<path d="M12.125 5.75H12M12.25 5.75C12.25 5.8163 12.2237 5.87989 12.1768 5.92678C12.1299 5.97366 12.0663 6 12 6C11.9337 6 11.8701 5.97366 11.8232 5.92678C11.7763 5.87989 11.75 5.8163 11.75 5.75C11.75 5.6837 11.7763 5.62011 11.8232 5.57322C11.8701 5.52634 11.9337 5.5 12 5.5C12.0663 5.5 12.1299 5.52634 12.1768 5.57322C12.2237 5.62011 12.25 5.6837 12.25 5.75Z" stroke="currentColor" stroke-width="1.5" stroke-linecap="round" stroke-linejoin="round"/>
</svg>
