<svg width="330" height="334" viewBox="0 0 330 334" fill="none" xmlns="http://www.w3.org/2000/svg">
<path d="M61.6241 122.27L100.699 69.8819L300 106L255 157L61.6241 122.27Z" fill="#2F55B1"/>
<path d="M61 122L71.8581 81.6697C76.8838 63.0025 90.5758 47.768 108.854 41.473C184.123 15.5508 238.324 7.3854 330 0C330 42.575 295.021 76.1408 252.531 78.8321C188.646 82.8786 136.799 95.3164 61 122Z" fill="url(#paint0_linear_43_2224)"/>
<path d="M31 228L40.5898 192.38C46.3875 170.846 62.4958 153.477 83.765 146.772C162.919 121.82 215.263 113.945 300 106V115.434C300 149.176 272.131 175.782 238.448 177.782C173.14 181.66 117.899 196.304 31 228Z" fill="url(#paint1_linear_43_2224)"/>
<path d="M0 334L4.16724 315.448C10.1065 289.007 28.7905 266.991 54.4517 258.278C102.918 241.823 139.377 234.555 195 228C195 264.631 164.16 292.718 127.763 296.852C87.1916 301.46 51.1237 313.422 0 334Z" fill="url(#paint2_linear_43_2224)"/>
<defs>
<linearGradient id="paint0_linear_43_2224" x1="381.352" y1="18.9595" x2="13.7139" y2="85.5172" gradientUnits="userSpaceOnUse">
<stop stop-color="#3254A8"/>
<stop offset="1" stop-color="#84A2EB"/>
</linearGradient>
<linearGradient id="paint1_linear_43_2224" x1="-40.2307" y1="204.095" x2="339.049" y2="152.506" gradientUnits="userSpaceOnUse">
<stop stop-color="#84A2EB"/>
<stop offset="1" stop-color="#3E5FB1"/>
</linearGradient>
<linearGradient id="paint2_linear_43_2224" x1="-37.1822" y1="310.812" x2="236.366" y2="253.092" gradientUnits="userSpaceOnUse">
<stop stop-color="#84A2EB"/>
<stop offset="1" stop-color="#3F60B2"/>
</linearGradient>
</defs>
</svg>
